<svg xmlns="http://www.w3.org/2000/svg" xmlns:svg="http://www.w3.org/2000/svg" xmlns:xlink="http://www.w3.org/1999/xlink" id="svg2" width="500" height="485" version="1.0" viewBox="0 0 132.72 127.219" xml:space="preserve"><title id="title4">Firefox Logo</title><desc id="desc6">Firefox logo in SVG, authored by Jon Hicks, made in Adobe Illustrator (file format cleaned up and slightly modified by Doug Schepers)</desc><g id="Firefox" transform="matrix(1.0777, 0, 0, 1.08028, -2.52936, -0.759711)"><g id="Globe"><ellipse id="ellipse10" cx="63.755" cy="59.375" fill="#110070" rx="59.336" ry="59.375"/><radialGradient id="XMLID_61_" cx="64.569" cy="7.227" r="104.221" fx="64.569" fy="7.227" gradientUnits="userSpaceOnUse"><stop id="stop13" offset="0" stop-color="#67C5D5" stop-opacity="1"/><stop id="stop15" offset=".16" stop-color="#66C2D3" stop-opacity="1"/><stop id="stop17" offset=".28" stop-color="#62B9CE" stop-opacity="1"/><stop id="stop19" offset=".385" stop-color="#5CA8C6" stop-opacity="1"/><stop id="stop21" offset=".483" stop-color="#5392BA" stop-opacity="1"/><stop id="stop23" offset=".576" stop-color="#4874AA" stop-opacity="1"/><stop id="stop25" offset=".665" stop-color="#3A5097" stop-opacity="1"/><stop id="stop27" offset=".748" stop-color="#2A2781" stop-opacity="1"/><stop id="stop29" offset=".815" stop-color="#1B006D" stop-opacity="1"/><stop id="stop31" offset="1" stop-color="#596AAD" stop-opacity="1"/></radialGradient><ellipse id="ellipse33" cx="63.755" cy="59.375" fill="url(#XMLID_61_) rgb(0, 0, 0)" rx="58.215" ry="58.254"/><radialGradient id="XMLID_62_" cx="64.552" cy="14.175" r="52.232" fx="64.552" fy="14.175" gradientUnits="userSpaceOnUse"><stop id="stop36" offset="0" stop-color="#0F80BC" stop-opacity="1"/><stop id="stop38" offset=".338" stop-color="#0A5F9E" stop-opacity="1"/><stop id="stop40" offset="1" stop-color="#00145A" stop-opacity="1"/></radialGradient><path id="path42" fill="url(#XMLID_62_) rgb(0, 0, 0)" d="M 55.405,89.446 C 55.333,89.13 54.548,88.213 53.947,88.008 C 53.348,87.803 52.759,88.892 52.373,87.084 C 51.107,87.81 50.561,86.884 50.561,86.884 C 50.561,86.884 49.196,86.964 48.932,88.635 C 48.282,89.404 46.616,92.201 47.501,89.292 C 48.392,86.365 46.561,89.062 46.391,90.532 C 46.073,91.185 45.536,91.251 45.874,88.314 C 44.701,87.909 44.102,85.187 44.745,85.135 C 43.998,84.094 44.585,82.502 45.207,82.587 C 45.829,82.667 46.897,81.227 46.864,80.893 C 46.831,80.56 47.346,80.798 47.314,78.557 C 47.281,76.31 48.161,75.754 48.233,77.633 C 48.309,79.505 49.427,77.02 49.312,76.067 C 49.196,75.118 49.424,72.973 50.105,74.241 C 49.312,71.104 49.938,70.98 50.414,73.068 C 51.607,73.162 51.648,73.798 51.648,73.798 C 52.969,73.473 53.602,74.468 53.704,75.026 C 54.928,73.581 56.164,75.139 56.164,75.139 C 56.164,75.139 57.017,74.856 56.609,76.339 C 56.199,77.817 58.381,77.017 57.86,75.955 C 58.933,75.412 60.526,77.057 61.028,78.179 C 61.53,79.306 60.168,80.902 61.23,81.288 C 62.298,81.672 61.83,83.53 61.83,83.53 C 61.83,83.53 64.062,84.768 62.513,85.831 L 61.985,87.096 C 61.985,87.096 62.995,88.223 63.339,87.552 C 63.683,86.88 63.805,88.235 63.805,88.235 C 63.676,87.995 64.053,89.631 65.445,89.975 C 66.843,90.316 67.728,92.525 66.176,92.553 C 64.63,92.578 64.51,92.536 64.091,93.439 C 63.674,94.338 61.7,94.37 60.678,93.206 C 59.591,93.574 57.657,93.1 58.226,92.23 C 57.288,92.777 56.402,91.308 57.135,90.653 C 57.868,90 56.723,89.154 56.338,90.09 C 55.957,91.025 53.934,91.486 54.075,89.895 C 54.117,89.423 55.195,89.147 55.209,89.541 C 55.406,89.996 55.486,89.505 55.405,89.446 z"/><g id="g44"><radialGradient id="XMLID_63_" cx="64.554" cy="14.176" r="52.229" fx="64.554" fy="14.176" gradientUnits="userSpaceOnUse"><stop id="stop47" offset="0" stop-color="#0F80BC" stop-opacity="1"/><stop id="stop49" offset=".338" stop-color="#0A5F9E" stop-opacity="1"/><stop id="stop51" offset="1" stop-color="#00145A" stop-opacity="1"/></radialGradient><path id="path53" fill="url(#XMLID_63_) rgb(0, 0, 0)" d="M 103.541,43.916 C 103.85,44.222 104.458,44.154 104.795,44.06 C 105.134,43.963 105.086,43.723 105.378,43.629 C 105.665,43.532 106.775,44.06 106.485,45.213 C 105.812,45.307 105.568,46.125 105.568,46.125 C 105.568,46.125 104.895,46.412 104.555,46.269 C 104.217,46.125 104.217,46.172 103.734,46.219 C 103.251,46.269 102.091,45.597 103.347,45.597 C 104.604,45.597 103.204,45.02 102.672,45.02 C 102.142,45.02 102.575,44.492 103.204,44.636 C 102.768,43.916 103.009,43.385 103.541,43.916 z"/><radialGradient id="XMLID_64_" cx="64.549" cy="14.172" r="52.237" fx="64.549" fy="14.172" gradientUnits="userSpaceOnUse"><stop id="stop56" offset="0" stop-color="#0F80BC" stop-opacity="1"/><stop id="stop58" offset=".338" stop-color="#0A5F9E" stop-opacity="1"/><stop id="stop60" offset="1" stop-color="#00145A" stop-opacity="1"/></radialGradient><path id="path62" fill="url(#XMLID_64_) rgb(0, 0, 0)" d="M 99.188,46.524 C 98.851,46.858 99.237,47.868 99.671,47.818 C 100.104,47.771 100.781,47.58 100.781,47.58 C 100.781,47.58 101.118,48.252 100.781,48.446 C 100.444,48.636 99.462,48.552 100.734,49.021 C 102.038,49.5 102.374,49.355 102.471,49.115 C 102.568,48.877 103.001,48.061 103.244,48.109 C 103.437,47.678 102.568,47.294 103.052,47.004 C 103.531,46.716 103.148,45.661 103.148,45.661 C 103.148,45.661 102.471,45.708 102.182,46.189 C 101.892,46.669 101.508,46.142 101.218,46.142 C 101.169,46.429 100.975,46.669 100.975,46.669 L 100.782,46.235 C 100.781,46.234 99.428,46.188 99.188,46.524 z"/></g><radialGradient id="XMLID_65_" cx="65.405" cy="19.12" r="57.383" fx="65.405" fy="19.12" gradientUnits="userSpaceOnUse"><stop id="stop65" offset="0" stop-color="#0F80BC" stop-opacity="1"/><stop id="stop67" offset=".264" stop-color="#0B629B" stop-opacity="1"/><stop id="stop69" offset=".844" stop-color="#031747" stop-opacity="1"/><stop id="stop71" offset="1" stop-color="#00022F" stop-opacity="1"/></radialGradient><path id="path73" fill="url(#XMLID_65_) rgb(0, 0, 0)" d="M 90.165,47.314 C 90.123,47.191 90.549,46.694 90.435,47.338 C 90.173,47.796 91.493,48.208 91.863,47.698 C 93.104,45.998 90.693,45.176 89.647,45.966 C 88.591,46.763 88.009,45.054 89.222,44.811 C 90.431,44.566 90.533,42.381 89.201,42.373 C 90.377,41.793 88.748,40.055 87.402,39.758 C 87.185,37.888 85.213,36.699 84.176,37.378 C 83.129,38.059 83.039,37.939 81.505,37.008 C 79.977,36.081 79.241,38.936 80.365,40.183 C 81.496,41.439 80.676,43.464 80.723,43.118 C 80.723,43.118 80.297,43.884 80.325,44.171 C 79.031,44.61 78.653,42.788 77.85,42.385 C 77.265,43.148 76.32,43.555 76.32,43.555 L 76.391,42.002 C 76.391,42.002 72.374,39.814 71.14,40.427 C 69.619,40.897 69.259,44.418 70.64,44.933 C 72.023,45.454 68.905,46.751 72.033,50.049 C 75.246,53.435 76.488,53.532 77.144,52.981 C 77.306,52.842 77.586,52.634 77.928,52.403 C 77.959,52.533 78.011,52.658 78.091,52.776 C 78.895,53.985 76.222,54.938 75.849,56.67 C 75.47,58.421 75.819,61.677 77.405,61.788 C 77.707,60.053 80.675,60.666 79.06,62.238 C 77.416,63.841 78.569,64.124 78.569,64.124 C 78.569,64.124 78.647,67.127 81.161,66.167 C 81.088,66.339 81.029,66.559 80.994,66.799 C 80.291,66.657 78.573,66.442 78.153,67.64 C 77.623,69.152 75.379,67.128 73.809,67.807 C 72.246,68.481 69.965,70.694 70.733,72.25 C 72.209,71.55 73.339,74.706 71.277,74.058 C 69.208,73.408 69.61,74.641 69.61,74.641 C 69.61,74.641 67.456,76.34 69.473,78.149 C 68.698,78.267 67.321,79.13 67.785,81.023 C 67.785,81.023 66.9,81.055 66.781,82.749 C 63.894,83.331 64.07,84.227 68.414,83.245 C 66.661,84.155 69.64,84.583 70.96,84.462 C 72.282,84.342 75.752,86.053 73.145,86.07 C 70.533,86.086 71.311,87.364 74.439,87.425 C 77.562,87.489 77.234,88.213 77.698,88.181 C 78.162,88.149 80.182,89.742 80.072,90.625 C 79.959,91.509 82.188,92.426 83.638,91.413 C 83.712,92.332 87.524,91.615 88.088,89.958 C 92.216,90.589 92.121,89.819 91.202,89.329 C 89.135,89.013 85.342,86.266 89.456,87.679 C 93.549,89.09 89.606,86.569 88.527,85.6 C 86.177,85.143 86.057,83.184 86.057,83.184 C 86.057,83.184 87.355,82.445 86.331,80.598 C 88.87,80.127 87.337,79.234 87.622,78.383 C 87.907,77.529 89.196,76.441 89.638,76.353 C 89.722,76.238 90.413,76.376 89.772,76.636 C 89.218,76.642 89.611,78.202 90.274,78.282 C 92.516,78.555 91.86,75.628 90.543,75.039 C 89.223,74.445 90.408,72.835 91.335,73.919 C 92.262,75.001 94.328,73.786 93.553,72.415 C 94.785,73.269 95.449,70.506 94.925,68.92 C 96.573,67.491 96.52,64.642 95.245,64.005 C 94.618,63.692 94.315,63.489 94.163,63.1 C 94.92,62.742 95.924,62.478 96.318,62.831 C 96.959,63.41 98.743,61.813 98.63,59.946 C 99.381,60.358 100.577,56.551 99.561,55.219 C 101.887,51.967 101.26,51.672 100.482,52.217 C 99.312,53.839 95.469,55.78 98.448,52.905 C 101.34,50.114 97.679,52.23 96.454,52.683 C 95.013,54.488 93.484,53.621 93.484,53.621 C 93.484,53.621 93.549,52.142 91.688,52.112 C 92.548,49.739 91.162,50.596 90.677,49.948 C 90.191,49.301 90.016,47.719 90.165,47.314 z"/><radialGradient id="XMLID_66_" cx="64.551" cy="14.173" r="52.233" fx="64.551" fy="14.173" gradientUnits="userSpaceOnUse"><stop id="stop76" offset="0" stop-color="#0F80BC" stop-opacity="1"/><stop id="stop78" offset=".338" stop-color="#0A5F9E" stop-opacity="1"/><stop id="stop80" offset="1" stop-color="#00145A" stop-opacity="1"/></radialGradient><path id="path82" fill="url(#XMLID_66_) rgb(0, 0, 0)" d="M 60.007,23.541 C 59.646,24.482 61.185,26.011 61.958,25.519 C 62.733,25.024 63.843,24.037 63.843,24.037 C 63.843,24.037 65.02,24.982 64.544,25.656 C 64.065,26.328 62.158,27.084 64.918,26.778 C 67.749,26.465 68.265,25.881 68.251,25.341 C 68.236,24.803 68.392,22.872 68.882,22.738 C 68.897,21.748 66.957,21.84 67.629,20.849 C 68.301,19.863 66.724,18.243 66.724,18.243 C 66.724,18.243 65.496,18.962 65.342,20.131 C 65.187,21.298 64.038,20.669 63.494,20.937 C 63.635,21.521 63.468,22.149 63.468,22.149 L 62.757,21.52 C 62.758,21.519 60.186,22.688 60.007,23.541 z"/><radialGradient id="XMLID_67_" cx="64.552" cy="14.165" r="52.242" fx="64.552" fy="14.165" gradientUnits="userSpaceOnUse"><stop id="stop85" offset="0" stop-color="#0F80BC" stop-opacity="1"/><stop id="stop87" offset=".338" stop-color="#0A5F9E" stop-opacity="1"/><stop id="stop89" offset="1" stop-color="#00145A" stop-opacity="1"/></radialGradient><path id="path91" fill="url(#XMLID_67_) rgb(0, 0, 0)" d="M 64.61,72.966 C 64.273,73.3 64.66,74.309 65.093,74.262 C 65.527,74.213 66.203,74.022 66.203,74.022 C 66.203,74.022 66.54,74.694 66.203,74.887 C 65.864,75.077 64.884,74.995 66.154,75.462 C 67.457,75.942 67.796,75.798 67.893,75.558 C 67.988,75.318 68.422,74.502 68.664,74.549 C 68.859,74.118 67.988,73.735 68.471,73.447 C 68.954,73.156 68.57,72.101 68.57,72.101 C 68.57,72.101 67.894,72.149 67.604,72.63 C 67.314,73.109 66.928,72.581 66.638,72.581 C 66.589,72.869 66.398,73.109 66.398,73.109 L 66.205,72.678 C 66.204,72.678 64.851,72.63 64.61,72.966 z"/><g id="g93"><defs id="defs95"><ellipse id="XMLID_8_" cx="63.755" cy="59.375" rx="58.215" ry="58.254"/></defs><clipPath id="XMLID_68_"><use id="use99" width="132.72" height="127.219" x="0" y="0" xlink:href="#XMLID_8_"/></clipPath><linearGradient id="XMLID_69_" x1="76.372" x2="93.232" y1="16.592" y2="18.029" gradientUnits="userSpaceOnUse"><stop id="stop102" offset="0" stop-color="#0F80BC" stop-opacity="1"/><stop id="stop104" offset=".338" stop-color="#0A5F9E" stop-opacity="1"/><stop id="stop106" offset="1" stop-color="#00145A" stop-opacity="1"/></linearGradient><path id="path108" fill="url(#XMLID_69_) rgb(0, 0, 0)" d="M 65.061,1.002 C 64.149,1.205 65.674,4.505 65.674,4.505 C 65.674,4.505 65.619,6.721 65.995,6.834 C 66.369,6.947 68.847,7.567 70.142,9.179 C 71.443,10.793 70.767,11.642 69.684,11.176 C 68.6,10.711 68.887,12.135 68.887,12.135 C 68.887,12.135 72.157,13.198 69.687,13.13 C 67.212,13.064 71.353,14.871 71.08,15.06 C 70.807,15.251 70.651,16.291 70.651,16.291 C 70.651,16.291 68.468,16.473 70.318,17.25 C 76.578,19.887 69.649,19.175 69.649,19.175 L 68.765,20.262 L 70.514,22.456 L 71.859,23.418 C 71.859,23.418 74.692,22.473 75.575,22.325 C 76.459,22.179 78.689,20.51 78.689,20.51 C 78.689,20.51 79.358,20.988 78.858,20.013 C 78.357,19.037 80.699,19.473 81.283,20.199 L 85.417,22.066 C 85.471,22.21 85.563,22.34 85.709,22.441 C 86.515,23.006 84.98,23.976 85.136,25.003 C 85.292,26.019 86.229,27.707 87.257,27.529 C 87.077,26.56 89.108,26.443 88.401,27.523 C 87.695,28.6 88.478,28.579 88.478,28.579 C 88.478,28.579 89.131,30.1 90.512,29.255 C 90.456,29.719 90.739,30.652 91.925,30.714 C 91.925,30.714 91.799,31.22 92.773,31.579 C 92.641,33.316 93.197,33.371 93.334,30.733 C 93.579,31.89 94.326,30.262 94.475,29.483 C 94.625,28.699 96.231,26.978 95.797,28.499 C 95.366,30.007 100.532,30.559 101.105,28.758 C 101.683,26.943 103.742,25.995 103.804,25.72 C 103.866,25.439 99.221,25.008 99.734,25.227 C 100.248,25.446 101.204,24.279 100.849,23.241 C 101.425,23.357 101.679,20.94 100.766,20.314 C 101.909,17.909 101.417,17.834 100.948,18.313 C 100.378,19.518 98.026,21.336 99.621,19.096 C 101.23,16.833 98.968,18.812 98.183,19.304 C 97.494,20.645 96.284,20.384 96.284,20.384 C 96.284,20.384 96.062,19.473 94.768,19.777 C 94.919,18.165 94.115,18.939 93.648,18.623 C 93.363,18.43 93.09,17.996 92.922,17.624 C 94.037,18.076 95.534,18.557 95.276,17.728 C 95.109,17.186 97.388,18.371 97.468,18.124 L 100.316,17.728 L 103.085,15.978 C 85.388,0.164 65.061,1.002 65.061,1.002 z" clip-path="url(#XMLID_68_)"/><linearGradient id="XMLID_70_" x1="38.492" x2="29.174" y1="19.147" y2="32.832" gradientUnits="userSpaceOnUse"><stop id="stop111" offset="0" stop-color="#0F80BC" stop-opacity="1"/><stop id="stop113" offset=".338" stop-color="#0A5F9E" stop-opacity="1"/><stop id="stop115" offset="1" stop-color="#00145A" stop-opacity="1"/></linearGradient><path id="path117" fill="url(#XMLID_70_) rgb(0, 0, 0)" d="M 38.752,6.095 C 28.179,10.842 20.201,20.626 20.201,20.626 C 20.201,20.626 21.139,22.771 21.466,22.613 C 21.796,22.457 19.105,28.241 21.08,28.567 C 23.065,28.892 28.776,24.989 27.717,25.347 C 26.661,25.703 28.312,23.235 28.312,23.235 C 28.312,23.235 31.284,21.917 29.526,23.437 C 27.783,24.948 31.844,23.624 31.781,23.933 C 31.717,24.244 32.306,25.08 32.306,25.08 C 32.306,25.08 30.913,26.574 32.712,25.972 C 38.884,23.897 33.524,27.751 33.524,27.751 L 33.63,29.063 L 36.3,29.527 L 37.878,29.377 C 37.878,29.377 39.259,26.941 39.792,26.279 C 40.327,25.616 40.82,22.995 40.82,22.995 C 40.82,22.995 41.623,22.911 40.607,22.527 C 39.591,22.142 41.579,20.944 42.493,21.093 L 46.796,19.757 C 46.934,19.825 47.088,19.86 47.266,19.839 C 48.251,19.725 47.755,21.442 48.56,22.089 C 49.356,22.733 51.187,23.353 51.843,22.558 C 51.059,21.964 52.517,20.547 52.703,21.807 C 52.89,23.056 53.47,22.53 53.47,22.53 C 53.47,22.53 55.013,19.876 55.506,18.353 C 55.776,18.73 58.294,15.044 57.531,13.286 C 56.76,11.506 58.01,9.83 57.871,9.571 C 57.728,9.315 56.975,10.099 57.531,9.911 C 58.092,9.719 55.942,10.683 55.657,7.85 C 55.369,4.96 54.95,8.093 54.672,9.019 C 55.049,10.527 58.962,2.926 58.962,2.926 L 64.006,0.869 C 64.006,0.873 52.525,-0.088 38.752,6.095 z" clip-path="url(#XMLID_68_)"/></g><linearGradient id="XMLID_71_" x1="62.652" x2="62.652" y1="34.546" y2="11.895" gradientUnits="userSpaceOnUse"><stop id="stop120" offset=".014" stop-color="#000" stop-opacity="0"/><stop id="stop122" offset=".65" stop-color="#C4E0E3" stop-opacity=".2"/><stop id="stop124" offset=".822" stop-color="#C4E0E3" stop-opacity="1"/><stop id="stop126" offset=".85" stop-color="#CDE5E8" stop-opacity="1"/><stop id="stop128" offset=".944" stop-color="#E8F4F7" stop-opacity="1"/><stop id="stop130" offset="1" stop-color="#F2FAFC" stop-opacity="1"/></linearGradient><ellipse id="ellipse132" cx="62.652" cy="23.271" fill="url(#XMLID_71_) rgb(0, 0, 0)" opacity=".5" rx="30.825" ry="19.971"/></g><filter id="blurshadow" width="150%" height="150%" x="-25%" y="-25%"><feGaussianBlur id="feGaussianBlur135" in="SourceAlpha" result="blur" stdDeviation="1.5"/><feOffset id="feOffset137" dx="1" dy="1" in="blur" result="shift"/><feMerge id="feMerge139"><feMergeNode id="feMergeNode141" in="shift"/><feMergeNode id="feMergeNode143" in="SourceGraphic"/></feMerge></filter><g id="Fox"><g id="g146"><linearGradient id="XMLID_74_" x1="64.478" x2="78.466" y1="56.301" y2="48.085" gradientUnits="userSpaceOnUse"><stop id="stop149" offset="0" stop-color="#DF731B" stop-opacity="1"/><stop id="stop151" offset=".545" stop-color="#DF731B" stop-opacity="1"/><stop id="stop153" offset=".701" stop-color="#EC8811" stop-opacity="1"/><stop id="stop155" offset=".859" stop-color="#F4950B" stop-opacity="1"/><stop id="stop157" offset="1" stop-color="#F79A09" stop-opacity="1"/></linearGradient><path id="path159" fill="url(#XMLID_74_) rgb(0, 0, 0)" d="M 125.321,43.084 L 123.895,52.234 C 123.895,52.234 121.856,35.294 119.357,28.961 C 115.527,19.257 113.823,19.335 113.812,19.349 C 116.377,25.868 115.912,29.37 115.912,29.37 C 115.912,29.37 111.367,16.983 99.35,13.042 C 85.118,8.377 77.868,10.063 77.922,10.128 C 77.976,10.194 92.631,12.69 95.23,16.261 C 95.23,16.261 89.005,16.261 82.81,18.046 C 82.53,18.126 105.603,20.928 110.32,43.984 C 110.32,43.984 107.791,38.707 104.663,37.811 C 106.72,44.069 106.192,55.944 104.233,61.846 C 103.981,62.605 103.723,58.565 99.864,56.825 C 101.1,65.682 99.79,79.73 93.645,83.6 C 93.166,83.901 97.497,69.732 94.516,75.21 C 76.719,102.497 55.56,86.25 46.978,80.459 C 53.866,82.147 61.183,80.931 65.419,78.036 C 69.694,75.114 72.223,72.978 74.494,73.483 C 76.764,73.99 78.275,71.712 76.512,69.691 C 74.747,67.666 70.461,64.883 64.663,66.4 C 60.574,67.471 55.507,71.995 47.772,67.414 C 41.173,63.504 41.218,60.329 41.218,58.306 C 41.218,56.282 43.018,53.206 46.294,53.711 C 49.228,54.164 47.682,52.441 50.839,53.711 C 51.699,54.057 50.753,49.582 49.529,46.715 C 51.886,41.796 59.533,40.334 60.104,39.903 C 61.138,39.121 60.569,38.731 60.922,37.553 C 61.252,36.456 61.463,33.491 52.905,34.31 C 48.967,34.687 46.462,29.584 45.641,28.345 C 45.907,26.768 46.334,25.327 46.912,24.007 C 47.499,22.804 48.14,21.702 48.78,20.868 C 48.98,20.607 49.154,20.378 49.312,20.165 C 50.588,18.677 52.154,17.405 54.034,16.347 C 55.015,15.793 43.065,16.312 37.688,23.321 C 36.245,23.509 34.265,23.093 32.052,23.093 C 29.278,23.093 27.099,23.396 25.082,23.903 C 24.759,23.984 24.238,23.94 23.601,23.788 C 21.826,21.949 16.804,17.529 16.574,11.534 C 16.574,11.534 9.272,17.146 10.365,32.446 C 10.269,40.907 7.771,38.488 6.486,43.08 C 5.888,45.256 7.385,46.895 7.385,46.959 C 7.383,46.992 9.181,45.013 9.181,45.013 C 9.181,45.013 -2.142,64.63 12.481,89.673 C 25.085,111.262 46.236,120.803 68.184,118.945 C 72.023,118.695 75.89,118.123 79.748,117.191 C 130.881,104.828 125.321,43.084 125.321,43.084 z"/></g><linearGradient id="XMLID_75_" x1="41.839" x2="52.697" y1="36.962" y2="37.892" gradientUnits="userSpaceOnUse"><stop id="stop162" offset=".011" stop-color="#941403" stop-opacity="1"/><stop id="stop164" offset=".897" stop-color="#E85C0A" stop-opacity="1"/></linearGradient><path id="path166" fill="url(#XMLID_75_) rgb(0, 0, 0)" d="M 45.469,27.61 C 45.469,27.61 47.679,33.649 52.636,33.629 C 62.093,33.591 62.282,33.722 62.343,34.872 C 62.531,38.372 60.803,39.519 60.142,40.017 C 59.479,40.514 50.474,45.735 50.143,47.228 C 49.812,48.72 39.752,33.03 39.752,33.03 L 45.469,27.61 z"/><linearGradient id="XMLID_76_" x1="24.45" x2="63.643" y1="33.953" y2="38.852" gradientUnits="userSpaceOnUse"><stop id="stop169" offset=".011" stop-color="#941403" stop-opacity="1"/><stop id="stop171" offset=".136" stop-color="#A32104" stop-opacity="1"/><stop id="stop173" offset=".498" stop-color="#C84107" stop-opacity="1"/><stop id="stop175" offset=".789" stop-color="#DF5509" stop-opacity="1"/><stop id="stop177" offset=".972" stop-color="#E85C0A" stop-opacity="1"/></linearGradient><path id="path179" fill="url(#XMLID_76_) rgb(0, 0, 0)" d="M 50.504,34.12 C 50.504,34.12 53.576,38.042 51.253,39.611 C 48.415,41.527 55.265,41.946 57.747,40.553 C 60.229,39.16 61.753,37.113 61.84,36.808 C 61.927,36.503 62.742,33.754 57.561,34.712 C 54.285,35.318 53.085,35.458 50.504,34.12 z"/><linearGradient id="XMLID_77_" x1="48.731" x2="51.856" y1="44.32" y2="42.945" gradientUnits="userSpaceOnUse"><stop id="stop182" offset="0" stop-color="#F2C8A9" stop-opacity="1"/><stop id="stop184" offset="1" stop-color="#FFC" stop-opacity="1"/></linearGradient><path id="path186" fill="url(#XMLID_77_) rgb(0, 0, 0)" d="M 60.143,40.017 C 60.645,39.639 61.759,38.88 62.185,37.006 C 61.874,37.132 61.845,36.776 61.478,36.93 C 54.523,44.185 54.257,39.133 50.461,40.15 C 47.001,41.097 46.224,42.396 46.078,42.497 C 46.129,42.57 46.182,42.645 46.233,42.718 C 47.23,43.224 48.186,44.84 48.904,46.282 C 49.606,47.118 50.077,47.53 50.145,47.227 C 50.475,45.734 59.48,40.513 60.143,40.017 z"/><linearGradient id="XMLID_78_" x1="38.768" x2="91.339" y1="82.582" y2="84.747" gradientUnits="userSpaceOnUse"><stop id="stop189" offset="0" stop-color="#B30000" stop-opacity="1"/><stop id="stop191" offset="1" stop-color="#DF731B" stop-opacity="1"/></linearGradient><path id="path193" fill="url(#XMLID_78_) rgb(0, 0, 0)" d="M 8.18,45.782 C 6.76,48.761 -2.352,64.159 12.519,89.787 C 27.071,114.871 52.256,123.063 77.969,117.497 C 85.309,115.909 93.772,110.166 99.165,105.952 C 95.7,97.212 97.751,97.54 95.894,98.69 C 75.18,111.513 58.714,98.864 45.97,97.247 C -0.913,91.305 8.345,45.689 8.345,45.689 L 8.18,45.782 z"/><linearGradient id="XMLID_79_" x1="51.278" x2="78.689" y1="74.424" y2="84.212" gradientUnits="userSpaceOnUse"><stop id="stop196" offset="0" stop-color="#941403" stop-opacity="1"/><stop id="stop198" offset="1" stop-color="#DF731B" stop-opacity="1"/></linearGradient><path id="path200" fill="url(#XMLID_79_) rgb(0, 0, 0)" d="M 47.219,80.933 C 51.638,82.258 61.279,81.116 65.42,78.036 C 68.21,75.962 70.318,74.398 72.091,73.744 C 68.957,71.615 68.907,74.633 62.317,76.159 C 48.589,79.344 41.924,72.464 41.924,72.464 C 42.896,77.908 46.296,80.559 47.826,81.5 C 47.42,81.14 47.207,80.929 47.219,80.933 z"/><linearGradient id="XMLID_80_" x1="6.106" x2="32.828" y1="87.057" y2="87.057" gradientTransform="matrix(0.9988, 0.049, -0.049, 0.9988, 4.7153, -1.2399)" gradientUnits="userSpaceOnUse"><stop id="stop203" offset=".056" stop-color="#B30000" stop-opacity="1"/><stop id="stop205" offset="1" stop-color="#DE5C01" stop-opacity="1"/></linearGradient><path id="path207" fill="url(#XMLID_80_) rgb(0, 0, 0)" d="M 32.332,105.794 C 32.332,105.794 20.904,92.898 17.714,78.456 C 13.01,74.013 9.672,70.256 7.455,67.539 C 8.735,77.816 13.975,93.771 32.332,105.794 z"/><linearGradient id="XMLID_81_" x1="209.723" x2="224.261" y1="-130.659" y2="-85.619" gradientTransform="matrix(0.9929, 0.1186, -0.1186, 0.9929, -207.268, 181.293)" gradientUnits="userSpaceOnUse"><stop id="stop210" offset=".056" stop-color="#DE7210" stop-opacity="1"/><stop id="stop212" offset="1" stop-color="#F6C08F" stop-opacity="1"/></linearGradient><path id="path214" fill="url(#XMLID_81_) rgb(0, 0, 0)" d="M 22.799,94.082 C 22.799,94.082 14.912,82.854 17.869,73.32 C 20.529,64.749 17.304,69.848 15.428,71.68 C 13.533,73.531 12.559,66.216 12.607,65.373 C 12.61,65.355 12.608,65.347 12.606,65.346 C 12.487,65.321 8.852,82.872 22.799,94.082 z"/><linearGradient id="XMLID_82_" x1="12.471" x2="12.471" y1="61.107" y2="111.455" gradientTransform="matrix(0.999, 0.0448, -0.0448, 0.999, 3.2321, -0.6968)" gradientUnits="userSpaceOnUse"><stop id="stop217" offset=".056" stop-color="#DE7210" stop-opacity="1"/><stop id="stop219" offset="1" stop-color="#F6C08F" stop-opacity="1"/></linearGradient><path id="path221" fill="url(#XMLID_82_) rgb(0, 0, 0)" d="M 11.115,84.294 C 11.115,84.294 9.317,61.506 15,58.285 C 24.025,53.17 15.753,54.366 13.136,55.786 C 10.491,57.219 10.736,47.786 11.11,46.89 C 11.477,46.007 1.795,55.808 11.115,84.294 z"/><path id="path223" fill="#A40000" d="M 50.601,17.239 C 50.601,17.239 43.456,24.496 43.509,24.521 C 43.563,24.547 43.714,33.836 43.947,36.469 C 44.803,37.48 47.471,44.057 45.429,42.597 C 43.343,41.107 44.847,41.075 45.029,41.832 C 45.034,41.857 45.034,41.869 45.029,41.869 C 44.891,41.933 39.844,30.946 50.601,17.239 z"/><linearGradient id="XMLID_83_" x1="18.348" x2="12.886" y1="30.846" y2="16.85" gradientUnits="userSpaceOnUse"><stop id="stop226" offset=".011" stop-color="#941403" stop-opacity="1"/><stop id="stop228" offset=".472" stop-color="#E85C0A" stop-opacity="1"/><stop id="stop230" offset="1" stop-color="#F9BD5F" stop-opacity="1"/></linearGradient><path id="path232" fill="url(#XMLID_83_) rgb(0, 0, 0)" d="M 16.613,11.647 C 16.613,11.647 9.019,17.472 10.47,33.452 C 16.348,28.175 24.66,24.23 24.66,24.23 C 23.265,23.352 16.866,18.233 16.613,11.647 z"/><linearGradient id="XMLID_84_" x1="41.704" x2="54.792" y1="34.058" y2="16.853" gradientUnits="userSpaceOnUse"><stop id="stop235" offset=".197" stop-color="#DE7210" stop-opacity="1"/><stop id="stop237" offset=".843" stop-color="#F9BD5F" stop-opacity="1"/><stop id="stop239" offset="1" stop-color="#FFFCCF" stop-opacity="1"/></linearGradient><path id="path241" fill="url(#XMLID_84_) rgb(0, 0, 0)" d="M 35.328,29.122 L 46.734,43.307 C 43.443,29.377 45.973,21.019 54.074,16.46 C 55.273,15.784 37.149,16.703 35.328,29.122 z"/><linearGradient id="XMLID_85_" x1="34.784" x2="48.052" y1="57.541" y2="84.079" gradientUnits="userSpaceOnUse"><stop id="stop244" offset=".017" stop-color="#941403" stop-opacity="1"/><stop id="stop246" offset=".5" stop-color="#E35100" stop-opacity="1"/><stop id="stop248" offset="1" stop-color="#DF731B" stop-opacity="1"/></linearGradient><path id="path250" fill="url(#XMLID_85_) rgb(0, 0, 0)" d="M 27.292,64.164 C 29.237,51.908 46.294,53.71 46.294,53.71 C 45.533,54.275 42.611,54.613 41.774,56.951 C 39.012,64.67 41.646,81.532 58.852,88.604 C 60.667,89.352 24.418,82.276 27.292,64.164 z"/><linearGradient id="XMLID_86_" x1="54.825" x2="58.139" y1="41.267" y2="44.27" gradientUnits="userSpaceOnUse"><stop id="stop253" offset="0" stop-color="#EEA272" stop-opacity="1"/><stop id="stop255" offset=".186" stop-color="#EFA777" stop-opacity="1"/><stop id="stop257" offset=".406" stop-color="#F2B585" stop-opacity="1"/><stop id="stop259" offset=".643" stop-color="#F6CD9C" stop-opacity="1"/><stop id="stop261" offset=".89" stop-color="#FCEEBB" stop-opacity="1"/><stop id="stop263" offset="1" stop-color="#FFC" stop-opacity="1"/></linearGradient><path id="path265" fill="url(#XMLID_86_) rgb(0, 0, 0)" d="M 62.087,37.338 C 62.003,37.323 61.929,37.325 61.892,37.375 C 61.682,37.656 60.871,38.614 58.942,40.185 C 55.359,43.1 53.849,42.362 51.18,42.959 C 49.965,43.23 48.81,44.046 48.032,44.7 C 48.347,45.209 48.641,45.757 48.903,46.282 C 49.605,47.118 50.076,47.53 50.144,47.227 C 50.475,45.734 59.48,40.513 60.143,40.016 C 60.613,39.663 61.611,38.962 62.087,37.338 z"/><linearGradient id="XMLID_87_" x1="35.5" x2="50.721" y1="48.361" y2="63.893" gradientUnits="userSpaceOnUse"><stop id="stop268" offset=".197" stop-color="#DF731B" stop-opacity="1"/><stop id="stop270" offset=".843" stop-color="#F9BD5F" stop-opacity="1"/><stop id="stop272" offset="1" stop-color="#FFFCCF" stop-opacity="1"/></linearGradient><path id="path274" fill="url(#XMLID_87_) rgb(0, 0, 0)" d="M 51.09,55.865 C 51.19,53.275 51.009,46.984 48.316,44.254 C 46.259,42.169 45.776,39.78 45.5,37.053 C 23.137,45.406 19.944,56.325 22.18,55.97 C 40.066,53.135 45.094,52.788 51.09,55.865 z"/><linearGradient id="XMLID_88_" x1="847.471" x2="847.471" y1="-1065.021" y2="-1007.958" gradientTransform="matrix(0.9673, 0.2537, -0.2537, 0.9673, -1076.67, 855.232)" gradientUnits="userSpaceOnUse"><stop id="stop277" offset=".056" stop-color="#DE7210" stop-opacity="1"/><stop id="stop279" offset="1" stop-color="#F6C08F" stop-opacity="1"/></linearGradient><path id="path281" fill="url(#XMLID_88_) rgb(0, 0, 0)" d="M 3.411,71.171 C 3.411,71.171 4.965,50.979 15.072,43.589 C 23.007,37.784 16.845,39.893 13.781,40.133 C 10.55,40.389 8.827,42.354 9.45,41.631 C 9.477,41.601 9.486,41.584 9.481,41.576 C 9.375,41.451 1.897,47.726 3.411,71.171 z"/><linearGradient id="XMLID_89_" x1="15.856" x2="-3.437" y1="36.413" y2="67.833" gradientTransform="matrix(0.9897, -0.0801, 0.0949, 1.1727, -3.8203, -4.9468)" gradientUnits="userSpaceOnUse"><stop id="stop284" offset=".056" stop-color="#DE7210" stop-opacity="1"/><stop id="stop286" offset="1" stop-color="#F2C06E" stop-opacity="1"/></linearGradient><path id="path288" fill="url(#XMLID_89_) rgb(0, 0, 0)" d="M 2.347,55.658 C 2.347,55.658 7.763,38.466 18.709,38.611 C 25.968,38.708 20.21,32.477 18.014,31.53 C 15.723,30.549 15.175,30.587 14.64,31.061 C 13.838,31.771 6.636,31.497 2.347,55.658 z"/><linearGradient id="XMLID_90_" x1="80.929" x2="60.433" y1="67.845" y2="71.76" gradientUnits="userSpaceOnUse"><stop id="stop291" offset=".005" stop-color="#FFFAEE" stop-opacity="1"/><stop id="stop293" offset=".276" stop-color="#F5F89B" stop-opacity="1"/><stop id="stop295" offset=".31" stop-color="#F3ED91" stop-opacity="1"/><stop id="stop297" offset=".467" stop-color="#ECC267" stop-opacity="1"/><stop id="stop299" offset=".618" stop-color="#E6A046" stop-opacity="1"/><stop id="stop301" offset=".761" stop-color="#E2872E" stop-opacity="1"/><stop id="stop303" offset=".892" stop-color="#E07820" stop-opacity="1"/><stop id="stop305" offset="1" stop-color="#DF731B" stop-opacity="1"/></linearGradient><path id="path307" fill="url(#XMLID_90_) rgb(0, 0, 0)" d="M 76.185,72.486 C 77.008,71.679 76.434,68.583 71.261,66.706 C 66.567,65.001 59.24,69.336 57.066,70.192 C 57.066,70.192 65.365,68.637 68.477,69.155 C 72.695,69.857 74.177,74.456 76.185,72.486 z"/><linearGradient id="XMLID_91_" x1="-411.273" x2="-411.273" y1="427.628" y2="475.319" gradientTransform="matrix(0.992, 0.1261, -0.1261, 0.992, 477.062, -332.391)" gradientUnits="userSpaceOnUse"><stop id="stop310" offset=".056" stop-color="#DE7210" stop-opacity="1"/><stop id="stop312" offset="1" stop-color="#F2C06E" stop-opacity="1"/></linearGradient><path id="path314" fill="url(#XMLID_91_) rgb(0, 0, 0)" d="M 10.342,66.822 C 10.342,66.822 9.443,49.92 17.018,42.701 C 22.965,37.031 18.087,39.446 15.574,39.977 C 12.924,40.539 11.709,42.354 12.148,41.687 C 12.167,41.659 12.171,41.644 12.167,41.638 C 12.064,41.547 6.548,47.557 10.342,66.822 z"/><linearGradient id="XMLID_92_" x1="-414.436" x2="-414.436" y1="422.684" y2="470.37" gradientTransform="matrix(0.9324, 0.3616, -0.3616, 0.9324, 554.92, -207.713)" gradientUnits="userSpaceOnUse"><stop id="stop317" offset=".056" stop-color="#DE7210" stop-opacity="1"/><stop id="stop319" offset="1" stop-color="#F2C06E" stop-opacity="1"/></linearGradient><path id="path321" fill="url(#XMLID_92_) rgb(0, 0, 0)" d="M 4.508,61.453 C 4.508,61.453 7.709,44.832 16.801,39.652 C 23.939,35.583 18.624,36.751 16.056,36.661 C 13.348,36.568 11.732,38.036 12.318,37.495 C 12.343,37.473 12.351,37.458 12.348,37.453 C 12.272,37.338 5.47,41.842 4.508,61.453 z"/><linearGradient id="XMLID_93_" x1="13.848" x2=".569" y1="55.797" y2="75.716" gradientTransform="matrix(0.8104, -0.5859, 0.5859, 0.8104, -28.537, 20.3312)" gradientUnits="userSpaceOnUse"><stop id="stop324" offset=".056" stop-color="#DE7210" stop-opacity="1"/><stop id="stop326" offset="1" stop-color="#F2C072" stop-opacity="1"/></linearGradient><path id="path328" fill="url(#XMLID_93_) rgb(0, 0, 0)" d="M 15.303,68.275 C 15.303,68.275 13.553,58.201 17.324,53.242 C 20.334,49.285 17.691,51.221 16.294,51.791 C 14.836,52.387 14.283,53.562 14.482,53.131 C 14.675,52.71 7.994,57.887 15.303,68.275 z"/><linearGradient id="XMLID_94_" x1="21.035" x2="7.756" y1="49.271" y2="69.189" gradientTransform="matrix(0.8104, -0.5859, 0.5859, 0.8104, -28.537, 20.3312)" gradientUnits="userSpaceOnUse"><stop id="stop331" offset=".056" stop-color="#DE7210" stop-opacity="1"/><stop id="stop333" offset="1" stop-color="#F2C072" stop-opacity="1"/></linearGradient><path id="path335" fill="url(#XMLID_94_) rgb(0, 0, 0)" d="M 17.303,58.775 C 17.303,58.775 15.553,48.701 19.324,43.742 C 22.334,39.785 19.691,41.721 18.294,42.291 C 16.836,42.887 16.283,44.062 16.482,43.631 C 16.675,43.21 9.994,48.387 17.303,58.775 z"/><linearGradient id="XMLID_95_" x1="12.313" x2="6.504" y1="37.865" y2="48.709" gradientUnits="userSpaceOnUse"><stop id="stop338" offset=".056" stop-color="#DE7210" stop-opacity="1"/><stop id="stop340" offset="1" stop-color="#EED8A5" stop-opacity="1"/></linearGradient><path id="path342" fill="url(#XMLID_95_) rgb(0, 0, 0)" d="M 6.725,45.003 C 6.725,45.003 10.812,36.628 16.245,34.979 C 20.581,33.664 17.595,33.683 16.259,33.357 C 14.863,33.019 13.828,33.591 14.205,33.379 C 14.573,33.172 6.875,33.428 6.725,45.003 z"/><linearGradient id="XMLID_96_" x1="11.73" x2="5.921" y1="44.492" y2="55.335" gradientUnits="userSpaceOnUse"><stop id="stop345" offset=".056" stop-color="#DE7210" stop-opacity="1"/><stop id="stop347" offset="1" stop-color="#EED8A5" stop-opacity="1"/></linearGradient><path id="path349" fill="url(#XMLID_96_) rgb(0, 0, 0)" d="M 6.142,51.631 C 6.142,51.631 10.229,43.256 15.662,41.607 C 19.998,40.292 17.012,40.311 15.676,39.985 C 14.28,39.647 13.245,40.219 13.622,40.007 C 13.989,39.799 6.291,40.056 6.142,51.631 z"/><linearGradient id="XMLID_97_" x1="18.313" x2="12.698" y1="39.891" y2="53.833" gradientUnits="userSpaceOnUse"><stop id="stop352" offset=".056" stop-color="#DE7210" stop-opacity="1"/><stop id="stop354" offset="1" stop-color="#F2C072" stop-opacity="1"/></linearGradient><path id="path356" fill="url(#XMLID_97_) rgb(0, 0, 0)" d="M 9.109,49.803 C 9.109,49.803 16.318,35.029 25.903,32.119 C 33.553,29.799 28.285,29.832 25.927,29.259 C 23.465,28.662 21.639,29.673 22.303,29.298 C 22.953,28.931 9.373,29.383 9.109,49.803 z"/><linearGradient id="XMLID_98_" x1="20.447" x2="7.168" y1="33.105" y2="53.023" gradientUnits="userSpaceOnUse"><stop id="stop359" offset=".056" stop-color="#DE7210" stop-opacity="1"/><stop id="stop361" offset="1" stop-color="#F2C072" stop-opacity="1"/></linearGradient><path id="path363" fill="url(#XMLID_98_) rgb(0, 0, 0)" d="M 14.037,41.846 C 14.037,41.846 18.521,32.657 24.482,30.847 C 29.24,29.404 25.963,29.425 24.497,29.068 C 22.965,28.697 21.83,29.325 22.243,29.092 C 22.647,28.864 14.201,29.145 14.037,41.846 z"/><linearGradient id="XMLID_99_" x1="21.341" x2="9.238" y1="37.126" y2="55.279" gradientUnits="userSpaceOnUse"><stop id="stop366" offset=".056" stop-color="#DE7210" stop-opacity="1"/><stop id="stop368" offset="1" stop-color="#F2C072" stop-opacity="1"/></linearGradient><path id="path370" fill="url(#XMLID_99_) rgb(0, 0, 0)" d="M 15.499,45.092 C 15.499,45.092 19.586,36.717 25.019,35.068 C 29.355,33.753 26.369,33.772 25.033,33.446 C 23.637,33.108 22.602,33.68 22.979,33.468 C 23.346,33.26 15.648,33.517 15.499,45.092 z"/><linearGradient id="XMLID_100_" x1="60.286" x2="61.245" y1="34.297" y2="36.006" gradientUnits="userSpaceOnUse"><stop id="stop373" offset="0" stop-color="#8B8B89" stop-opacity="1"/><stop id="stop375" offset="1" stop-color="#120500" stop-opacity="1"/></linearGradient><path id="path377" fill="url(#XMLID_100_) rgb(0, 0, 0)" d="M 62.344,34.872 C 62.297,33.999 62.168,33.714 57.988,33.643 C 58.467,33.86 59.293,34.295 60.202,35.041 C 61.403,36.025 61.598,37.122 61.722,38.258 C 62.129,37.484 62.427,36.417 62.344,34.872 z"/><linearGradient id="XMLID_101_" x1="22.56" x2="22.56" y1="28.492" y2="23.245" gradientUnits="userSpaceOnUse"><stop id="stop380" offset=".056" stop-color="#DE7210" stop-opacity="1"/><stop id="stop382" offset="1" stop-color="#F6C08F" stop-opacity="1"/></linearGradient><path id="path384" fill="url(#XMLID_101_) rgb(0, 0, 0)" d="M 37.802,23.206 L 34.177,29.039 C 34.177,29.039 19.681,26.766 7.392,38.655 C 6.376,39.637 15.43,17.632 37.802,23.206 z"/><linearGradient id="XMLID_102_" x1="23.012" x2="33.993" y1="34.751" y2="21.918" gradientTransform="matrix(0.9992, 0.0398, -0.0398, 0.9992, 0.9958, -1.3319)" gradientUnits="userSpaceOnUse"><stop id="stop387" offset=".056" stop-color="#DE7210" stop-opacity="1"/><stop id="stop389" offset="1" stop-color="#F6C08F" stop-opacity="1"/></linearGradient><path id="path391" fill="url(#XMLID_102_) rgb(0, 0, 0)" d="M 24.784,33.646 C 24.784,33.646 28.647,26.474 33.656,24.307 C 31.067,24.389 25.253,26.413 24.784,33.646 z"/><linearGradient id="XMLID_103_" x1="15.509" x2="9.7" y1="33.508" y2="44.352" gradientUnits="userSpaceOnUse"><stop id="stop394" offset=".056" stop-color="#DE7210" stop-opacity="1"/><stop id="stop396" offset="1" stop-color="#EED8A5" stop-opacity="1"/></linearGradient><path id="path398" fill="url(#XMLID_103_) rgb(0, 0, 0)" d="M 9.92,40.646 C 9.92,40.646 14.007,32.271 19.44,30.622 C 23.776,29.307 20.79,29.326 19.454,29 C 18.058,28.662 17.023,29.234 17.4,29.022 C 17.768,28.815 10.069,29.071 9.92,40.646 z"/><linearGradient id="XMLID_104_" x1="16.34" x2="27.067" y1="35.805" y2="23.268" gradientTransform="matrix(0.9946, 0.1039, -0.1039, 0.9946, 3.786, -2.0567)" gradientUnits="userSpaceOnUse"><stop id="stop401" offset=".056" stop-color="#DE7210" stop-opacity="1"/><stop id="stop403" offset="1" stop-color="#F6C08F" stop-opacity="1"/></linearGradient><path id="path405" fill="url(#XMLID_104_) rgb(0, 0, 0)" d="M 18.482,34.745 C 18.482,34.745 22.699,27.994 27.717,26.197 C 25.19,26.114 19.394,27.723 18.482,34.745 z"/><linearGradient id="XMLID_105_" x1="13.372" x2="26.26" y1="22.876" y2="24.641" gradientTransform="matrix(0.9959, 0.0903, -0.0903, 0.9959, 2.3457, -2.346)" gradientUnits="userSpaceOnUse"><stop id="stop408" offset=".056" stop-color="#DE7210" stop-opacity="1"/><stop id="stop410" offset="1" stop-color="#F6C08F" stop-opacity="1"/></linearGradient><path id="path412" fill="url(#XMLID_105_) rgb(0, 0, 0)" d="M 25.712,23.214 C 25.712,23.214 22.532,24.603 16.925,22.272 L 21.924,24.785 L 25.712,23.214 z"/><linearGradient id="XMLID_106_" x1="6.983" x2="25.178" y1="23.109" y2="25.601" gradientUnits="userSpaceOnUse"><stop id="stop415" offset=".056" stop-color="#DE7210" stop-opacity="1"/><stop id="stop417" offset="1" stop-color="#F6C08F" stop-opacity="1"/></linearGradient><path id="path419" fill="url(#XMLID_106_) rgb(0, 0, 0)" d="M 24.175,24.105 C 24.175,24.105 19.937,25.747 11.781,23.303 L 18.758,26.079 C 19.621,25.281 24.175,24.105 24.175,24.105 z"/><linearGradient id="XMLID_107_" x1="15.881" x2="27.724" y1="22.228" y2="23.85" gradientTransform="matrix(0.9959, 0.0903, -0.0903, 0.9959, 2.3457, -2.346)" gradientUnits="userSpaceOnUse"><stop id="stop422" offset=".056" stop-color="#DE7210" stop-opacity="1"/><stop id="stop424" offset="1" stop-color="#F6C08F" stop-opacity="1"/></linearGradient><path id="path426" fill="url(#XMLID_107_) rgb(0, 0, 0)" d="M 27.268,22.759 C 27.268,22.759 24.455,23.615 19.259,21.605 L 24.258,24.118 C 24.786,23.651 27.268,22.759 27.268,22.759 z"/><linearGradient id="XMLID_108_" x1="15.201" x2="4.522" y1="26.94" y2="25.844" gradientUnits="userSpaceOnUse"><stop id="stop429" offset=".056" stop-color="#DE7210" stop-opacity="1"/><stop id="stop431" offset="1" stop-color="#F6C08F" stop-opacity="1"/></linearGradient><path id="path433" fill="url(#XMLID_108_) rgb(0, 0, 0)" d="M 18.496,25.993 C 18.496,25.993 16.406,27.728 11.053,27.799 L 15.683,27.95 L 18.496,25.993 z"/><linearGradient id="XMLID_109_" x1="10.945" x2="25.719" y1="37.1" y2="19.835" gradientTransform="matrix(0.9946, 0.1039, -0.1039, 0.9946, 3.786, -2.0567)" gradientUnits="userSpaceOnUse"><stop id="stop436" offset=".056" stop-color="#DE7210" stop-opacity="1"/><stop id="stop438" offset="1" stop-color="#F6C08F" stop-opacity="1"/></linearGradient><path id="path440" fill="url(#XMLID_109_) rgb(0, 0, 0)" d="M 13.411,34.871 C 13.411,34.871 20.564,25.553 26.455,23.443 C 23.487,23.346 14.48,26.629 13.411,34.871 z"/></g><g id="Fire"><linearGradient id="XMLID_110_" x1="88.331" x2="117.265" y1="117.368" y2="72.741" gradientUnits="userSpaceOnUse"><stop id="stop444" offset="0" stop-color="#DE5C01" stop-opacity="1"/><stop id="stop446" offset=".736" stop-color="#FEFD00" stop-opacity="1"/><stop id="stop448" offset=".778" stop-color="#FEFE26" stop-opacity="1"/><stop id="stop450" offset=".837" stop-color="#FFFE54" stop-opacity="1"/><stop id="stop452" offset=".889" stop-color="#FFFF76" stop-opacity="1"/><stop id="stop454" offset=".932" stop-color="#FFFF8B" stop-opacity="1"/><stop id="stop456" offset=".961" stop-color="#FFFF92" stop-opacity="1"/></linearGradient><path id="path458" fill="url(#XMLID_110_) rgb(0, 0, 0)" d="M 124.199,50.76 C 124.199,50.76 124.97,68.048 100.955,92.064 C 98.286,94.732 83.795,108.308 84.305,112.381 C 84.484,113.82 122.326,106.576 124.199,50.76 z"/><linearGradient id="XMLID_111_" x1="105.157" x2="86.211" y1="22.738" y2="14.417" gradientUnits="userSpaceOnUse"><stop id="stop461" offset="0" stop-color="#F79A09" stop-opacity="1"/><stop id="stop463" offset=".736" stop-color="#FEFD00" stop-opacity="1"/><stop id="stop465" offset=".778" stop-color="#FEFE26" stop-opacity="1"/><stop id="stop467" offset=".837" stop-color="#FFFE54" stop-opacity="1"/><stop id="stop469" offset=".889" stop-color="#FFFF76" stop-opacity="1"/><stop id="stop471" offset=".932" stop-color="#FFFF8B" stop-opacity="1"/><stop id="stop473" offset=".961" stop-color="#FFFF92" stop-opacity="1"/></linearGradient><path id="path475" fill="url(#XMLID_111_) rgb(0, 0, 0)" d="M 77.64,10.096 C 106.566,12.318 112.168,33.117 112.17,31.844 C 112.243,11.624 84.726,10.089 77.64,10.096 z"/><linearGradient id="XMLID_112_" x1="117.882" x2="91.359" y1="41.729" y2="17.106" gradientUnits="userSpaceOnUse"><stop id="stop478" offset="0" stop-color="#DE5C01" stop-opacity="1"/><stop id="stop480" offset=".736" stop-color="#FEFD00" stop-opacity="1"/><stop id="stop482" offset=".778" stop-color="#FEFE26" stop-opacity="1"/><stop id="stop484" offset=".837" stop-color="#FFFE54" stop-opacity="1"/><stop id="stop486" offset=".889" stop-color="#FFFF76" stop-opacity="1"/><stop id="stop488" offset=".932" stop-color="#FFFF8B" stop-opacity="1"/><stop id="stop490" offset=".961" stop-color="#FFFF92" stop-opacity="1"/></linearGradient><path id="path492" fill="url(#XMLID_112_) rgb(0, 0, 0)" d="M 86.449,18.003 C 86.449,18.003 106.502,22.102 112.158,43.357 C 112.908,46.172 109.742,26.09 110.719,27.996 C 111.694,29.912 102.648,18.638 86.449,18.003 z"/><linearGradient id="XMLID_113_" x1="1.14" x2="-9.966" y1="145.445" y2="133.959" gradientTransform="matrix(0.9996, -0.0282, 0.0282, 0.9996, 104.777, -104.624)" gradientUnits="userSpaceOnUse"><stop id="stop495" offset="0" stop-color="#F79A09" stop-opacity="1"/><stop id="stop497" offset=".736" stop-color="#FEFD00" stop-opacity="1"/><stop id="stop499" offset=".778" stop-color="#FEFE26" stop-opacity="1"/><stop id="stop501" offset=".837" stop-color="#FFFE54" stop-opacity="1"/><stop id="stop503" offset=".889" stop-color="#FFFF76" stop-opacity="1"/><stop id="stop505" offset=".932" stop-color="#FFFF8B" stop-opacity="1"/><stop id="stop507" offset=".961" stop-color="#FFFF92" stop-opacity="1"/></linearGradient><path id="path509" fill="url(#XMLID_113_) rgb(0, 0, 0)" d="M 94.464,17.483 C 94.464,17.483 112.574,21.258 112.754,49.992 C 112.881,70.33 115.895,57.627 118.885,53.056 C 121.463,49.108 119.701,44.296 119.639,44.308 C 119.629,44.311 118.334,40.565 119.207,42.152 C 119.246,42.222 117.991,41.118 118,41.117 C 118.201,41.087 117.303,20.465 94.464,17.483 z"/><linearGradient id="XMLID_114_" x1="113.436" x2="119.687" y1="55.834" y2="34.332" gradientUnits="userSpaceOnUse"><stop id="stop512" offset="0" stop-color="#F79A09" stop-opacity="1"/><stop id="stop514" offset=".736" stop-color="#FEFD00" stop-opacity="1"/><stop id="stop516" offset=".778" stop-color="#FEFE26" stop-opacity="1"/><stop id="stop518" offset=".837" stop-color="#FFFE54" stop-opacity="1"/><stop id="stop520" offset=".889" stop-color="#FFFF76" stop-opacity="1"/><stop id="stop522" offset=".932" stop-color="#FFFF8B" stop-opacity="1"/><stop id="stop524" offset=".961" stop-color="#FFFF92" stop-opacity="1"/></linearGradient><path id="path526" fill="url(#XMLID_114_) rgb(0, 0, 0)" d="M 114.857,21.376 C 114.857,21.376 121.362,38.321 114.468,46.747 C 112.218,49.497 111.966,63.586 114.715,62.292 C 117.471,60.996 116.872,69.773 116.511,70.772 C 116.503,70.791 116.501,70.8 116.505,70.803 C 116.685,70.914 130.097,49.143 114.857,21.376 z"/><linearGradient id="XMLID_115_" x1="-51.966" x2="-52.194" y1="212.788" y2="196.434" gradientTransform="matrix(0.9992, -0.0412, 0.0412, 0.9992, 151.896, -153.906)" gradientUnits="userSpaceOnUse"><stop id="stop529" offset="0" stop-color="#F79A09" stop-opacity="1"/><stop id="stop531" offset=".736" stop-color="#FEFD00" stop-opacity="1"/><stop id="stop533" offset=".778" stop-color="#FEFE26" stop-opacity="1"/><stop id="stop535" offset=".837" stop-color="#FFFE54" stop-opacity="1"/><stop id="stop537" offset=".889" stop-color="#FFFF76" stop-opacity="1"/><stop id="stop539" offset=".932" stop-color="#FFFF8B" stop-opacity="1"/><stop id="stop541" offset=".961" stop-color="#FFFF92" stop-opacity="1"/></linearGradient><path id="path543" fill="url(#XMLID_115_) rgb(0, 0, 0)" d="M 105.814,39.215 C 105.814,39.215 109.909,51.204 105.621,59.775 L 108.865,67.02 C 111.244,61.176 114.273,48.817 105.814,39.215 z"/><linearGradient id="XMLID_116_" x1="-172.721" x2="-161.456" y1="332.082" y2="309.893" gradientTransform="matrix(0.9975, -0.0707, 0.0707, 0.9975, 254.6, -268.47)" gradientUnits="userSpaceOnUse"><stop id="stop546" offset="0" stop-color="#F79A09" stop-opacity="1"/><stop id="stop548" offset=".736" stop-color="#FEFD00" stop-opacity="1"/><stop id="stop550" offset=".778" stop-color="#FEFE26" stop-opacity="1"/><stop id="stop552" offset=".837" stop-color="#FFFE54" stop-opacity="1"/><stop id="stop554" offset=".889" stop-color="#FFFF76" stop-opacity="1"/><stop id="stop556" offset=".932" stop-color="#FFFF8B" stop-opacity="1"/><stop id="stop558" offset=".961" stop-color="#FFFF92" stop-opacity="1"/></linearGradient><path id="path560" fill="url(#XMLID_116_) rgb(0, 0, 0)" d="M 113.016,37.789 C 113.016,37.789 115.848,56.819 105.629,73.997 C 105.787,77.97 105.09,81.566 104.133,84.529 C 104.578,85.115 105.174,85.516 105.96,85.586 C 105.613,85.906 105.268,86.206 104.934,86.49 C 104.32,86.761 103.691,87.048 103.082,87.343 C 102.952,87.646 102.821,87.94 102.693,88.222 C 103.373,87.745 104.131,87.166 104.933,86.491 C 107.02,85.569 108.898,84.853 108.894,84.849 C 108.894,84.849 108.511,84.992 107.591,85.327 C 106.972,85.552 106.431,85.628 105.959,85.586 C 113.851,78.394 124.665,62.311 113.016,37.789 z M 101.109,88.379 C 100.207,88.908 99.551,89.404 99.411,89.787 C 99.308,90.066 99.923,89.905 100.986,89.308 C 101.041,88.989 101.086,88.676 101.109,88.379 z"/><linearGradient id="XMLID_117_" x1="99.206" x2="100.721" y1="87.747" y2="63.169" gradientTransform="matrix(0.9975, -0.0707, 0.0707, 0.9975, -10.9669, 13.6507)" gradientUnits="userSpaceOnUse"><stop id="stop563" offset="0" stop-color="#DE5C01" stop-opacity="1"/><stop id="stop565" offset=".736" stop-color="#FEFD00" stop-opacity="1"/><stop id="stop567" offset=".778" stop-color="#FEFE26" stop-opacity="1"/><stop id="stop569" offset=".837" stop-color="#FFFE54" stop-opacity="1"/><stop id="stop571" offset=".889" stop-color="#FFFF76" stop-opacity="1"/><stop id="stop573" offset=".932" stop-color="#FFFF8B" stop-opacity="1"/><stop id="stop575" offset=".961" stop-color="#FFFF92" stop-opacity="1"/></linearGradient><path id="path577" fill="url(#XMLID_117_) rgb(0, 0, 0)" d="M 100.412,58.065 C 100.412,58.065 108.469,80.997 82.719,102.497 C 81.2,103.766 93.171,103.223 94.219,102.747 C 97.305,101.345 100.952,91.99 100.522,93.11 C 100.095,94.229 112.479,76.574 100.412,58.065 z"/><linearGradient id="XMLID_118_" x1="58.369" x2="105.875" y1="113.859" y2="85.465" gradientUnits="userSpaceOnUse"><stop id="stop580" offset="0" stop-color="#B9120D" stop-opacity="1"/><stop id="stop582" offset=".078" stop-color="#BB180D" stop-opacity="1"/><stop id="stop584" offset=".182" stop-color="#C0290C" stop-opacity="1"/><stop id="stop586" offset=".301" stop-color="#C8450A" stop-opacity="1"/><stop id="stop588" offset=".431" stop-color="#D36C08" stop-opacity="1"/><stop id="stop590" offset=".571" stop-color="#E29E05" stop-opacity="1"/><stop id="stop592" offset=".715" stop-color="#F4DA02" stop-opacity="1"/><stop id="stop594" offset=".792" stop-color="#FEFD00" stop-opacity="1"/><stop id="stop596" offset=".814" stop-color="#FEFD07" stop-opacity="1"/><stop id="stop598" offset=".845" stop-color="#FEFD1B" stop-opacity="1"/><stop id="stop600" offset=".884" stop-color="#FEFE3C" stop-opacity="1"/><stop id="stop602" offset=".927" stop-color="#FFFE69" stop-opacity="1"/><stop id="stop604" offset=".974" stop-color="#FFFFA3" stop-opacity="1"/><stop id="stop606" offset="1" stop-color="#FFFFC7" stop-opacity="1"/></linearGradient><path id="path608" fill="url(#XMLID_118_) rgb(0, 0, 0)" d="M 111.68,72.61 C 111.68,72.61 106.82,102.354 73.219,104.747 C 60.062,105.685 41.171,102.606 42.844,107.624 C 43.363,109.18 45.836,115.667 51.48,117.172 C 66.755,121.247 107.395,119.913 111.68,72.61 z"/></g><g id="Layer_6"><linearGradient id="XMLID_119_" x1="54.24" x2="102.907" y1="93.582" y2="100.176" gradientTransform="matrix(0.9951, 0.0989, -0.0989, 0.9951, 10.3843, -6.0754)" gradientUnits="userSpaceOnUse"><stop id="stop612" offset=".056" stop-color="#DE7210" stop-opacity="1"/><stop id="stop614" offset="1" stop-color="#F6C08F" stop-opacity="1"/></linearGradient><path id="path616" fill="url(#XMLID_119_) rgb(0, 0, 0)" d="M 83.657,95.119 C 83.657,95.119 63.098,99.816 49.779,88.478 C 37.592,78.101 43.638,86.835 45.291,91.143 C 46.989,95.561 37.438,92.185 36.002,91.475 C 34.571,90.774 58.625,105.859 83.657,95.119 z"/><linearGradient id="XMLID_120_" x1="39.013" x2="95.522" y1="89.89" y2="107.65" gradientTransform="matrix(0.9895, 0.1448, -0.1448, 0.9895, 14.2829, -5.8352)" gradientUnits="userSpaceOnUse"><stop id="stop619" offset=".056" stop-color="#DE7210" stop-opacity="1"/><stop id="stop621" offset="1" stop-color="#F6C08F" stop-opacity="1"/></linearGradient><path id="path623" fill="url(#XMLID_120_) rgb(0, 0, 0)" d="M 70.408,106.325 C 70.408,106.325 45.883,101.505 38.118,84.887 C 31.483,70.69 33.239,81.108 32.94,85.849 C 32.626,90.726 25.749,84.066 24.83,82.907 C 24.804,82.879 24.786,82.86 24.784,82.865 C 24.647,82.955 37.433,102.999 70.408,106.325 z"/><linearGradient id="XMLID_121_" x1="-601.467" x2="-574.597" y1="628.961" y2="680.404" gradientTransform="matrix(0.9837, -0.1799, 0.1799, 0.9837, 500.952, -643.727)" gradientUnits="userSpaceOnUse"><stop id="stop626" offset=".056" stop-color="#DE7210" stop-opacity="1"/><stop id="stop628" offset="1" stop-color="#F6C08F" stop-opacity="1"/></linearGradient><path id="path630" fill="url(#XMLID_121_) rgb(0, 0, 0)" d="M 43.617,104.176 C 43.617,104.176 31.903,95.103 26.622,82.662 C 22.184,81.12 16.283,77.595 16.166,76.992 C 18.041,86.659 27.912,97.946 43.617,104.176 z"/></g></g></svg>